<svg width="102" height="110" viewBox="0 0 102 110" fill="none" xmlns="http://www.w3.org/2000/svg">
<path d="M72.456 51.7773C71.8256 51.7773 71.2004 51.7999 70.5798 51.8394L69.0185 25.8887H55.9824V19.2633C55.9824 8.64145 47.341 0 36.7191 0C26.0974 0 17.456 8.64145 17.456 19.2633V25.8887H4.40701L0.432617 97.0557H48.2586C53.4868 104.855 62.3815 110 72.456 110C88.508 110 101.567 96.9407 101.567 80.8887C101.567 64.8366 88.508 51.7773 72.456 51.7773ZM23.9013 19.2633C23.9013 12.1956 29.6514 6.44531 36.7191 6.44531C43.7868 6.44531 49.5371 12.1954 49.5371 19.2633V25.8887H23.9013V19.2633ZM33.623 45.9239L36.8725 48.0814V58.2497H30.3735V48.0814L33.623 45.9239ZM7.24789 90.6104L10.5023 32.334H17.456V42.0557H23.9013V32.334H30.4003V40.327L23.9281 44.6239V64.6948H43.3178V44.6239L36.8456 40.327V32.334H49.5371V42.0557H55.9824V32.334H62.9491L64.1909 52.9745C52.1522 56.5452 43.3446 67.7069 43.3446 80.8887C43.3446 84.2965 43.9353 87.5686 45.0161 90.6104H7.24789ZM72.456 103.555C59.9579 103.555 49.79 93.3868 49.79 80.8887C49.79 68.3906 59.9579 58.2227 72.456 58.2227C84.9541 58.2227 95.122 68.3906 95.122 80.8887C95.122 93.3868 84.9541 103.555 72.456 103.555Z" fill="#33302E"/>
<path d="M69.9654 82.1095L63.013 75.1569L58.4556 79.7144L69.9654 91.2244L86.4566 74.7333L81.8991 70.1758L69.9654 82.1095Z" fill="#33302E"/>
</svg>
